<?xml version="1.0" encoding="UTF-8"?>
<svg xmlns="http://www.w3.org/2000/svg" viewBox="0 0 900 600" font-family="system-ui, Arial, sans-serif" role="img">
  <title>Teknik No-Touch Pemasangan IUD</title>
  <desc>Diagram no-touch technique pemasangan IUD pada model panggul dengan zona steril dan nonsteril.</desc>
  <defs>
    <marker id="arrow" viewBox="0 0 10 10" refX="8" refY="5" markerWidth="7" markerHeight="7" orient="auto-start-reverse"><path d="M 0 0 L 10 5 L 0 10 z" fill="#3b82f6"/></marker>
    <marker id="arrowCyan" viewBox="0 0 10 10" refX="8" refY="5" markerWidth="7" markerHeight="7" orient="auto-start-reverse"><path d="M 0 0 L 10 5 L 0 10 z" fill="#06b6d4"/></marker>
    <marker id="arrowWarn" viewBox="0 0 10 10" refX="8" refY="5" markerWidth="7" markerHeight="7" orient="auto-start-reverse"><path d="M 0 0 L 10 5 L 0 10 z" fill="#f59e0b"/></marker>
    <marker id="arrowRed" viewBox="0 0 10 10" refX="8" refY="5" markerWidth="7" markerHeight="7" orient="auto-start-reverse"><path d="M 0 0 L 10 5 L 0 10 z" fill="#ef4444"/></marker>
    <linearGradient id="violetCyan" x1="0" y1="0" x2="1" y2="1"><stop offset="0%" stop-color="#8b5cf6"/><stop offset="100%" stop-color="#06b6d4"/></linearGradient>
    <linearGradient id="softBlue" x1="0" y1="0" x2="0" y2="1"><stop offset="0%" stop-color="#e0f2fe"/><stop offset="100%" stop-color="#f8fafc"/></linearGradient>
    <linearGradient id="softRed" x1="0" y1="0" x2="1" y2="1"><stop offset="0%" stop-color="#fee2e2"/><stop offset="100%" stop-color="#fff7ed"/></linearGradient>
    
  </defs>

  <style>
    .title{font-size:28px;font-weight:800;fill:#1a1a2e}
    .subtitle{font-size:15px;fill:#475569;font-weight:500}
    .label{font-size:16px;fill:#1a1a2e;font-weight:700}
    .small{font-size:12.5px;fill:#475569;font-weight:600}
    .tiny{font-size:11px;fill:#475569}
    .card{fill:#f8fafc;stroke:#e2e8f0;stroke-width:2;rx:18}
    .panel{fill:#ffffff;stroke:#cbd5e1;stroke-width:2;rx:16}
    .line{stroke:#1a1a2e;stroke-width:2.5;fill:none;stroke-linecap:round;stroke-linejoin:round}
    .thin{stroke:#475569;stroke-width:1.5;fill:none;stroke-linecap:round;stroke-linejoin:round}
    .arrow{stroke:#3b82f6;stroke-width:4;fill:none;stroke-linecap:round;stroke-linejoin:round;marker-end:url(#arrow)}
    .arrowCyan{stroke:#06b6d4;stroke-width:4;fill:none;stroke-linecap:round;stroke-linejoin:round;marker-end:url(#arrowCyan)}
    .arrowWarn{stroke:#f59e0b;stroke-width:4;fill:none;stroke-linecap:round;stroke-linejoin:round;marker-end:url(#arrowWarn)}
    .arrowRed{stroke:#ef4444;stroke-width:4;fill:none;stroke-linecap:round;stroke-linejoin:round;marker-end:url(#arrowRed)}
  </style>

  <rect x="70" y="12" width="760" height="66" rx="20" fill="#ffffff" opacity="0.94" stroke="#e2e8f0" stroke-width="2"/>

  <text x="450" y="40" class="title" text-anchor="middle">Teknik No-Touch Pemasangan IUD</text>
  <text x="450" y="66" class="subtitle" text-anchor="middle">Inserter/sonde dijaga steril: jangan menyentuh dinding vagina atau bibir spekulum</text>
  <g transform="translate(82 105)">
    <rect x="0" y="0" width="736" height="420" rx="20" fill="#f8fafc" stroke="#e2e8f0" stroke-width="2"/>
    <path d="M130 240 C175 130 275 82 368 90 C462 82 562 130 607 240" fill="none" stroke="#64748b" stroke-width="6" stroke-linecap="round"/>
    <path d="M250 310 C310 235 425 235 485 310" fill="none" stroke="#64748b" stroke-width="5" stroke-linecap="round"/>
    <path d="M310 210 C330 150 408 150 428 210 C417 246 321 246 310 210Z" fill="#fee2e2" stroke="#991b1b" stroke-width="3"/>
    <path d="M318 208 C348 190 390 190 420 208" class="thin"/>
    <path d="M200 334 C275 280 465 280 536 334" fill="none" stroke="#ef4444" stroke-width="20" opacity="0.18" stroke-linecap="round"/>
    <path d="M170 265 C250 230 485 230 565 265" fill="none" stroke="#ef4444" stroke-width="20" opacity="0.18" stroke-linecap="round"/>
    <path d="M145 350 L592 172" stroke="#06b6d4" stroke-width="18" opacity="0.22" stroke-linecap="round"/>
    <path d="M128 360 L602 170" stroke="#06b6d4" stroke-width="6" stroke-linecap="round" marker-end="url(#arrowCyan)"/>
    <rect x="138" y="350" width="205" height="20" rx="10" fill="#e2e8f0" stroke="#475569" stroke-width="2" transform="rotate(-22 138 350)"/>
    <path d="M584 164 l42 -16" stroke="#1a1a2e" stroke-width="5" stroke-linecap="round"/>
    <path d="M604 154 l18 38" stroke="#1a1a2e" stroke-width="5" stroke-linecap="round"/>
    <text x="130" y="92" class="label" style="fill:#06b6d4" text-anchor="middle">Zona steril</text>
    <text x="130" y="118" class="small" text-anchor="middle">jalur inserter</text>
    <path d="M130 125 L204 334" class="arrowCyan"/>
    <text x="620" y="308" class="label" style="fill:#ef4444" text-anchor="middle">Zona nonsteril</text>
    <text x="620" y="332" class="small" text-anchor="middle">dinding vagina / spekulum</text>
    <path d="M610 282 L520 260" class="arrowRed"/>
    <rect x="260" y="345" width="260" height="48" rx="24" fill="#ecfdf5" stroke="#22c55e" stroke-width="2"/>
    <text x="390" y="376" class="label" style="fill:#166534" text-anchor="middle">No-touch: satu gerakan terarah</text>
  </g>

</svg>
